<?xml version="1.0" encoding="utf-8"?>
<!-- Generator: Adobe Illustrator 26.2.1, SVG Export Plug-In . SVG Version: 6.00 Build 0)  -->
<svg version="1.1" id="Layer_1" xmlns="http://www.w3.org/2000/svg" xmlns:xlink="http://www.w3.org/1999/xlink" x="0px" y="0px"
	 viewBox="0 0 994.3 469.3" style="enable-background:new 0 0 994.3 469.3;" xml:space="preserve">
<style type="text/css">
	.st0{fill:none;stroke:#000000;stroke-width:0.7087;stroke-linecap:round;stroke-linejoin:round;stroke-miterlimit:10;}
	.st1{fill:none;stroke:#231F20;stroke-width:0.7087;stroke-linecap:round;stroke-linejoin:round;stroke-miterlimit:10;}
</style>
<g id="charLayer">
	<g id="uppercaseA">
		<polyline class="st0" points="50,71.4 50,31.4 90,31.4 90,71.4 		"/>
		<line class="st0" x1="50" y1="51.4" x2="90" y2="51.4"/>
	</g>
	<g id="uppercaseB">
		<polygon class="st0" points="140,61.4 130,51.4 140,41.4 140,31.4 100,31.4 100,71.4 140,71.4 		"/>
		<line class="st0" x1="130" y1="51.4" x2="100" y2="51.4"/>
	</g>
	<g id="uppercaseC">
		<polyline class="st0" points="190,71.4 150,71.4 150,31.4 190,31.4 		"/>
	</g>
	<g id="uppercaseD">
		<polygon class="st0" points="231.1,71.4 201.1,71.4 201.1,31.4 231.1,31.4 241.1,51.4 		"/>
	</g>
	<g id="uppercaseE">
		<polyline class="st0" points="290,71.4 250,71.4 250,31.4 290,31.4 		"/>
		<line class="st0" x1="290" y1="51.4" x2="250" y2="51.4"/>
	</g>
	<g id="uppercaseF">
		<polyline class="st0" points="300,71.4 300,31.4 340,31.4 		"/>
		<line class="st0" x1="340" y1="51.4" x2="300" y2="51.4"/>
	</g>
	<g id="uppercaseG">
		<polyline class="st0" points="390,31.4 350,31.4 350,71.4 390,71.4 390,51.4 370,51.4 		"/>
	</g>
	<g id="uppercaseH">
		<line class="st0" x1="400" y1="31.4" x2="400" y2="71.4"/>
		<line class="st0" x1="440" y1="51.4" x2="400" y2="51.4"/>
		<line class="st0" x1="440" y1="31.4" x2="440" y2="71.4"/>
	</g>
	<g id="uppercaseI">
		<line class="st0" x1="450" y1="31.4" x2="490" y2="31.4"/>
		<line class="st0" x1="470" y1="71.4" x2="470" y2="31.4"/>
		<line class="st0" x1="450" y1="71.4" x2="490" y2="71.4"/>
	</g>
	<g id="uppercaseJ">
		<polyline class="st0" points="500,31.4 540,31.4 540,51.4 530,71.4 500,71.4 500,51.4 		"/>
	</g>
	<g id="uppercaseK">
		<line class="st0" x1="550" y1="71.4" x2="550" y2="31.4"/>
		<polyline class="st0" points="590,31.4 550,51.4 590,71.4 		"/>
	</g>
	<g id="uppercaseL">
		<polyline class="st0" points="600,31.4 600,71.4 640,71.4 		"/>
	</g>
	<g id="uppercaseM">
		<polyline class="st0" points="650,71.4 650,31.4 670,71.4 690,31.4 690,71.4 		"/>
	</g>
	<g id="uppercaseN">
		<polyline class="st0" points="50,121.4 50,81.4 90,121.4 90,81.4 		"/>
	</g>
	<g id="uppercaseO">
		<rect x="100" y="81.4" class="st0" width="40" height="40"/>
	</g>
	<g id="uppercaseP">
		<polyline class="st0" points="150,121.4 150,81.4 190,81.4 190,101.4 150,101.4 		"/>
	</g>
	<g id="uppercaseQ">
		<rect x="201.1" y="81.4" class="st0" width="40" height="40"/>
		<line class="st0" x1="221.1" y1="101.4" x2="241.1" y2="121.4"/>
	</g>
	<g id="uppercaseR">
		<polyline class="st0" points="250,121.4 250,81.4 290,81.4 290,101.4 250,101.4 		"/>
		<line class="st0" x1="270" y1="101.4" x2="290" y2="121.4"/>
	</g>
	<g id="uppercaseS">
		<polyline class="st0" points="340,81.4 300,81.4 300,101.4 340,101.4 340,121.4 300,121.4 		"/>
	</g>
	<g id="uppercaseT">
		<line class="st0" x1="350" y1="81.4" x2="390" y2="81.4"/>
		<line class="st0" x1="370" y1="121.4" x2="370" y2="81.4"/>
	</g>
	<g id="uppercaseU">
		<polyline class="st0" points="400,81.4 400,121.4 440,121.4 440,81.4 		"/>
	</g>
	<g id="uppercaseV">
		<polyline class="st0" points="450,81.4 450,111.4 470,121.4 490,111.4 490,81.4 		"/>
	</g>
	<g id="uppercaseW">
		<polyline class="st0" points="500,81.4 500,121.4 520,111.4 540,121.4 540,81.4 		"/>
	</g>
	<g id="uppercaseX">
		<line class="st0" x1="550" y1="81.4" x2="590" y2="121.4"/>
		<line class="st0" x1="550" y1="121.4" x2="590" y2="81.4"/>
	</g>
	<g id="uppercaseY">
		<polyline class="st0" points="600,81.4 620,101.4 620,121.4 		"/>
		<line class="st0" x1="640" y1="81.4" x2="620" y2="101.4"/>
	</g>
	<g id="uppercaseZ">
		<polyline class="st0" points="650,81.4 690,81.4 650,121.4 690,121.4 		"/>
	</g>
	<g id="number0">
		<rect x="50" y="131.4" class="st0" width="40" height="40"/>
		<line class="st0" x1="90" y1="131.4" x2="50" y2="171.4"/>
	</g>
	<g id="number1">
		<path class="st0" d="M100,131.4"/>
		<polyline class="st0" points="100,151.4 120,131.4 120,171.4 		"/>
		<line class="st0" x1="100" y1="171.4" x2="140" y2="171.4"/>
	</g>
	<g id="number2">
		<polyline class="st0" points="150,141.4 150,131.4 190,131.4 190,141.4 150,171.4 190,171.4 190,161.4 		"/>
	</g>
	<g id="number3">
		<polyline class="st0" points="201.1,131.4 241.1,131.4 231.1,151.4 241.1,171.4 201.1,171.4 		"/>
	</g>
	<g id="number4">
		<polyline class="st0" points="250,131.4 250,151.4 290,151.4 		"/>
		<line class="st0" x1="280" y1="131.4" x2="280" y2="171.4"/>
	</g>
	<g id="number5">
		<polyline class="st0" points="340,131.4 300,131.4 300,151.4 330,151.4 340,160.1 330,171.4 300,171.4 		"/>
	</g>
	<g id="number6">
		<polyline class="st0" points="390,131.4 350,131.4 350,171.4 390,171.4 390,151.4 350,151.4 		"/>
	</g>
	<g id="number7">
		<polyline class="st0" points="400,131.4 440,131.4 400,171.4 		"/>
	</g>
	<g id="number8">
		<rect x="450" y="151.4" class="st0" width="40" height="20"/>
		<polyline class="st0" points="450,151.4 450,131.4 490,131.4 490,151.4 		"/>
	</g>
	<g id="number9">
		<polyline class="st0" points="540,151.4 500,151.4 500,131.4 540,131.4 540,171.4 500,171.4 		"/>
	</g>
	<g id="ampersand">
		<polyline class="st0" points="290,271.4 250,241.4 250,231.4 280,231.4 280,241.4 250,261.4 250,271.4 270,271.4 290,251.4 		"/>
	</g>
	<g id="apostrophe">
		<path class="st0" d="M540,221.4"/>
		<line class="st0" x1="520" y1="181.4" x2="520" y2="191.4"/>
		<path class="st0" d="M500,181.4"/>
	</g>
	<g id="asterisk">
		<path class="st0" d="M390,221.4"/>
		<path class="st0" d="M350,181.4"/>
		<polyline class="st0" points="370,181.4 370,188.9 377.9,187.1 		"/>
		<polyline class="st0" points="374.9,196.4 370,188.9 365.1,196.4 		"/>
		<line class="st0" x1="362.1" y1="187.1" x2="370" y2="188.9"/>
	</g>
	<g id="atsymbol">
		<polyline class="st0" points="240,271.4 200,271.4 200,231.4 240,231.4 240,258.5 225.7,258.5 225.7,245.5 214.3,245.5 
			214.3,255.7 225.7,255.7 		"/>
	</g>
	<g id="closedparenthesis">
		<path class="st0" d="M140,321.4"/>
		<path class="st0" d="M100,281.4"/>
		<path class="st0" d="M120,321.4c0,0,10-3.9,10-20s-10-20-10-20"/>
	</g>
	<g id="colon">
		<path class="st0" d="M190,221.4"/>
		<path class="st0" d="M150,181.4"/>
		<rect x="168.5" y="211.4" class="st0" width="3" height="3"/>
		<rect x="168.5" y="199.4" class="st0" width="3" height="3"/>
	</g>
	<g id="comma">
		<polyline class="st0" points="121.5,221.4 121.5,211.4 118.5,211.4 118.5,214.4 121.5,214.4 		"/>
		<path class="st0" d="M100,181.4"/>
		<path class="st0" d="M140,221.4"/>
	</g>
	<g id="dash">
		<path class="st0" d="M340,221.4"/>
		<line class="st1" x1="307" y1="201.4" x2="333" y2="201.4"/>
		<path class="st0" d="M300,181.4"/>
	</g>
	<g id="dollarsign">
		<polyline class="st0" points="390,236.4 350,236.4 350,251.4 390,251.4 390,266.4 350,266.4 		"/>
		<line class="st0" x1="370" y1="231.4" x2="370" y2="271.4"/>
	</g>
	<g id="eurosign">
		<polyline class="st0" points="440,271.4 409.7,271.4 409.7,231.4 440,231.4 		"/>
		<line class="st0" x1="425" y1="256.4" x2="400" y2="256.4"/>
		<line class="st0" x1="425" y1="246.4" x2="400" y2="246.4"/>
	</g>
	<g id="equals">
		<path class="st0" d="M490,221.4"/>
		<path class="st0" d="M450,181.4"/>
		<line class="st0" x1="460" y1="207.7" x2="480" y2="207.7"/>
		<line class="st0" x1="480" y1="195.1" x2="460" y2="195.1"/>
	</g>
	<g id="exclamationmark">
		<path class="st0" d="M140,271.4"/>
		<line class="st0" x1="120" y1="231.4" x2="120" y2="256.4"/>
		<path class="st0" d="M100,231.4"/>
		<rect x="118.5" y="268.4" class="st0" width="3" height="3"/>
	</g>
	<g id="forwardslash">
		<line class="st0" x1="440" y1="181.4" x2="400" y2="221.4"/>
	</g>
	<g id="greater">
		<path class="st0" d="M240,321.4"/>
		<path class="st0" d="M200,281.4"/>
		<polyline class="st0" points="210,311.4 230,301.4 210,291.4 		"/>
	</g>
	<g id="hashsymbol">
		<line class="st0" x1="300" y1="241.4" x2="340" y2="241.4"/>
		<line class="st0" x1="300" y1="261.4" x2="340" y2="261.4"/>
		<line class="st0" x1="305" y1="271.4" x2="315" y2="231.4"/>
		<line class="st0" x1="325" y1="271.4" x2="335" y2="231.4"/>
	</g>
	<g id="less">
		<polyline class="st0" points="180,291.4 160,301.4 180,311.4 		"/>
		<path class="st0" d="M190,321.4"/>
		<path class="st0" d="M150,281.4"/>
	</g>
	<g id="notavailable">
		<path class="st0" d="M790,71.4"/>
		<path class="st0" d="M750,31.4"/>
		<line class="st1" x1="754.8" y1="36.2" x2="785.2" y2="66.6"/>
		<line class="st1" x1="785.2" y1="36.2" x2="754.8" y2="66.6"/>
		<rect x="754.8" y="36.2" class="st0" width="30.4" height="30.4"/>
	</g>
	<g id="openparenthesis">
		<path class="st0" d="M90,321.4"/>
		<path class="st0" d="M50,281.4"/>
		<path class="st0" d="M70,281.4c0,0-10,3.9-10,20s10,20,10,20"/>
	</g>
	<g id="percentsymbol">
		<line class="st0" x1="150" y1="271.4" x2="190" y2="231.4"/>
		<circle class="st0" cx="155" cy="236.4" r="5"/>
		<circle class="st0" cx="185" cy="266.4" r="5"/>
	</g>
	<g id="period">
		<path class="st0" d="M90,221.4"/>
		<path class="st0" d="M50,181.4"/>
		<rect x="68.5" y="218.4" class="st0" width="3" height="3"/>
	</g>
	<g id="plus">
		<path class="st0" d="M290,221.4"/>
		<path class="st0" d="M250,181.4"/>
		<line class="st0" x1="270" y1="191.4" x2="270" y2="211.4"/>
		<line class="st0" x1="260" y1="201.4" x2="280" y2="201.4"/>
	</g>
	<g id="questionmark">
		<path class="st0" d="M90,271.4"/>
		<polyline class="st0" points="60,231.4 80,231.4 80,246.4 70,246.4 70,256.4 		"/>
		<path class="st0" d="M50,231.4"/>
		<rect x="68.5" y="268.4" class="st0" width="3" height="3"/>
	</g>
	<g id="quotes">
		<path class="st0" d="M590,221.4"/>
		<line class="st0" x1="566" y1="181.4" x2="566" y2="191.4"/>
		<line class="st0" x1="574" y1="181.4" x2="574" y2="191.4"/>
		<path class="st0" d="M550,181.4"/>
	</g>
	<g id="semicolon">
		<path class="st0" d="M240,221.4"/>
		<path class="st0" d="M200,181.4"/>
		<rect x="218.5" y="199.4" class="st0" width="3" height="3"/>
		<polyline class="st0" points="221.5,221.4 221.5,211.4 218.5,211.4 218.5,214.4 221.5,214.4 		"/>
	</g>
	<g id="openbracket">
		<polyline class="st0" points="270,281.4 260,281.4 260,321.4 270,321.4 		"/>
		<path class="st0" d="M250,281.4"/>
		<path class="st0" d="M290,321.4"/>
	</g>
	<g id="closedbracket">
		<polyline class="st0" points="320,321.4 330,321.4 330,281.4 320,281.4 		"/>
		<path class="st0" d="M300,281.4"/>
		<path class="st0" d="M340,321.4"/>
	</g>
	<g id="tilde">
		<path class="st0" d="M640,321.4"/>
		<path class="st1" d="M607,301.4c0,0,6.8-6.2,13,0s13,0,13,0"/>
		<path class="st0" d="M600,281.4"/>
	</g>
	<g id="underscore">
		<line class="st1" x1="450" y1="321.4" x2="490" y2="321.4"/>
		<path class="st0" d="M450,281.4"/>
	</g>
	<g id="emdash">
		<line class="st1" x1="650" y1="301.4" x2="690" y2="301.4"/>
		<path class="st0" d="M650,281.4"/>
		<path class="st0" d="M690,321.4"/>
	</g>
	<g id="circumflex">
		<path class="st0" d="M540,321.4"/>
		<polyline class="st1" points="507,296.7 520,281.4 533,296.7 		"/>
		<path class="st0" d="M500,281.4"/>
	</g>
	<g id="bar">
		<line class="st0" x1="570" y1="281.4" x2="570" y2="321.4"/>
		<path class="st0" d="M550,281.4"/>
		<path class="st0" d="M590,321.4"/>
	</g>
	<g id="closedbrace">
		<path class="st0" d="M400,281.4"/>
		<path class="st0" d="M440,321.4"/>
		<path class="st0" d="M420,321.4c0,0,5-2.7,5-15c0-1.4,0-3.1,5-5l0,0c-5-1.9-5-3.6-5-5c0-12.3-5-15-5-15"/>
	</g>
	<g id="openbrace">
		<path class="st0" d="M390,321.4"/>
		<path class="st0" d="M350,281.4"/>
		<path class="st0" d="M370,281.4c0,0-5,2.7-5,15c0,1.4,0,3.1-5,5l0,0c5,1.9,5,3.6,5,5c0,12.3,5,15,5,15"/>
	</g>
</g>
</svg>
